{
  "version": "1.1.6",
  "modules": [
    {
      "id": 1,
      "plugin": "Core",
      "version": "1.1.6",
      "model": "AudioInterface",
      "params": [],
      "leftModuleId": 2,
      "rightModuleId": 8,
      "data": {
        "audio": {
          "driver": 6,
          "deviceName": "Speakers (5- XIBERIA)",
          "offset": 0,
          "maxChannels": 8,
          "sampleRate": 44100,
          "blockSize": 256
        }
      },
      "pos": [
        71,
        0
      ]
    },
    {
      "id": 2,
      "plugin": "Fundamental",
      "version": "1.4.0",
      "model": "VCMixer",
      "params": [
        {
          "id": 0,
          "value": 1.0
        },
        {
          "id": 1,
          "value": 0.920653045
        },
        {
          "id": 2,
          "value": 1.0
        },
        {
          "id": 3,
          "value": 1.0
        },
        {
          "id": 4,
          "value": 1.0
        }
      ],
      "leftModuleId": 7,
      "rightModuleId": 1,
      "pos": [
        61,
        0
      ]
    },
    {
      "id": 3,
      "plugin": "Fundamental",
      "version": "1.4.0",
      "model": "VCO",
      "params": [
        {
          "id": 0,
          "value": 1.0
        },
        {
          "id": 1,
          "value": 1.0
        },
        {
          "id": 2,
          "value": -29.5380039
        },
        {
          "id": 3,
          "value": 0.0149999913
        },
        {
          "id": 4,
          "value": 0.0
        },
        {
          "id": 5,
          "value": 0.5
        },
        {
          "id": 6,
          "value": 0.0
        }
      ],
      "leftModuleId": 11,
      "rightModuleId": 4,
      "pos": [
        22,
        0
      ]
    },
    {
      "id": 4,
      "plugin": "Fundamental",
      "version": "1.4.0",
      "model": "VCF",
      "params": [
        {
          "id": 0,
          "value": 0.106500059
        },
        {
          "id": 1,
          "value": 0.590500057
        },
        {
          "id": 2,
          "value": 0.603999913
        },
        {
          "id": 3,
          "value": 0.840999603
        },
        {
          "id": 4,
          "value": 0.0
        }
      ],
      "leftModuleId": 3,
      "rightModuleId": 6,
      "pos": [
        32,
        0
      ]
    },
    {
      "id": 6,
      "plugin": "Fundamental",
      "version": "1.4.0",
      "model": "ADSR",
      "params": [
        {
          "id": 0,
          "value": 0.30000025
        },
        {
          "id": 1,
          "value": 0.80600071
        },
        {
          "id": 2,
          "value": 0.496999353
        },
        {
          "id": 3,
          "value": 0.531499207
        }
      ],
      "leftModuleId": 4,
      "rightModuleId": 7,
      "pos": [
        40,
        0
      ]
    },
    {
      "id": 7,
      "plugin": "Fundamental",
      "version": "1.4.0",
      "model": "Scope",
      "params": [
        {
          "id": 0,
          "value": 0.0
        },
        {
          "id": 1,
          "value": 0.0
        },
        {
          "id": 2,
          "value": 0.0
        },
        {
          "id": 3,
          "value": 0.0
        },
        {
          "id": 4,
          "value": 14.0
        },
        {
          "id": 5,
          "value": 0.0
        },
        {
          "id": 6,
          "value": 0.0
        },
        {
          "id": 7,
          "value": 0.0
        }
      ],
      "leftModuleId": 6,
      "rightModuleId": 2,
      "data": {
        "lissajous": 0,
        "external": 0
      },
      "pos": [
        48,
        0
      ]
    },
    {
      "id": 8,
      "plugin": "Core",
      "version": "1.1.6",
      "model": "Notes",
      "params": [],
      "leftModuleId": 1,
      "rightModuleId": 10,
      "text": "Demo patch instructions:\n\n1. Choose an audio driver and device in the AUDIO-8 module.\n\n2. Use the QWERTY and ZXCVB rows of your keyboard to generate MIDI notes, which are converted to 1V/oct and GATE signals.\n\n3. Drag knobs up/down. Hold Ctrl (Cmd on Mac) while dragging to fine-tune. Right-click knobs to edit, or double-click to initialize.\n\n4. Drag ports to create and move cables. Stack multiple cables on outputs by holding Ctrl (Cmd on Mac) and dragging from an output.\n\n5. Right-click on an empty rack space to add new modules.",
      "pos": [
        81,
        0
      ]
    },
    {
      "id": 10,
      "plugin": "VCV-Recorder",
      "version": "1.1.0",
      "model": "Recorder",
      "params": [
        {
          "id": 0,
          "value": 1.0
        },
        {
          "id": 1,
          "value": 0.0
        }
      ],
      "leftModuleId": 8,
      "data": {
        "format": "wav",
        "path": "C:\\Users\\Owner\\Documents\\music/meow beat.wav",
        "incrementPath": true,
        "sampleRate": 44100,
        "depth": 16,
        "bitRate": 256000,
        "videoBitRate": 2048000
      },
      "pos": [
        97,
        0
      ]
    },
    {
      "id": 11,
      "plugin": "Fundamental",
      "version": "1.4.0",
      "model": "SEQ3",
      "params": [
        {
          "id": 0,
          "value": 1.99999988
        },
        {
          "id": 1,
          "value": 0.0
        },
        {
          "id": 2,
          "value": 0.0
        },
        {
          "id": 3,
          "value": 8.0
        },
        {
          "id": 4,
          "value": 0.705000281
        },
        {
          "id": 5,
          "value": 0.779998422
        },
        {
          "id": 6,
          "value": 7.60500431
        },
        {
          "id": 7,
          "value": 0.0
        },
        {
          "id": 8,
          "value": 2.68500185
        },
        {
          "id": 9,
          "value": 0.0
        },
        {
          "id": 10,
          "value": 0.675000548
        },
        {
          "id": 11,
          "value": 2.53500032
        },
        {
          "id": 12,
          "value": 0.0
        },
        {
          "id": 13,
          "value": 0.0
        },
        {
          "id": 14,
          "value": 2.21999907
        },
        {
          "id": 15,
          "value": 0.0
        },
        {
          "id": 16,
          "value": 2.62499881
        },
        {
          "id": 17,
          "value": 0.0
        },
        {
          "id": 18,
          "value": 0.0
        },
        {
          "id": 19,
          "value": 0.0
        },
        {
          "id": 20,
          "value": 0.0
        },
        {
          "id": 21,
          "value": 0.0
        },
        {
          "id": 22,
          "value": 0.0
        },
        {
          "id": 23,
          "value": 0.0
        },
        {
          "id": 24,
          "value": 0.0
        },
        {
          "id": 25,
          "value": 0.0
        },
        {
          "id": 26,
          "value": 0.0
        },
        {
          "id": 27,
          "value": 0.0
        },
        {
          "id": 28,
          "value": 0.0
        },
        {
          "id": 29,
          "value": 0.0
        },
        {
          "id": 30,
          "value": 0.0
        },
        {
          "id": 31,
          "value": 0.0
        },
        {
          "id": 32,
          "value": 0.0
        },
        {
          "id": 33,
          "value": 0.0
        },
        {
          "id": 34,
          "value": 0.0
        },
        {
          "id": 35,
          "value": 0.0
        }
      ],
      "rightModuleId": 3,
      "data": {
        "running": false,
        "gates": [
          1,
          1,
          1,
          1,
          1,
          1,
          1,
          1
        ]
      },
      "pos": [
        0,
        0
      ]
    }
  ],
  "cables": [
    {
      "id": 25,
      "outputModuleId": 3,
      "outputId": 2,
      "inputModuleId": 4,
      "inputId": 3,
      "color": "#0c8e15"
    },
    {
      "id": 26,
      "outputModuleId": 2,
      "outputId": 0,
      "inputModuleId": 1,
      "inputId": 0,
      "color": "#0986ad"
    },
    {
      "id": 27,
      "outputModuleId": 2,
      "outputId": 0,
      "inputModuleId": 1,
      "inputId": 1,
      "color": "#c9b70e"
    },
    {
      "id": 28,
      "outputModuleId": 6,
      "outputId": 0,
      "inputModuleId": 4,
      "inputId": 0,
      "color": "#c91847"
    },
    {
      "id": 30,
      "outputModuleId": 6,
      "outputId": 0,
      "inputModuleId": 2,
      "inputId": 5,
      "color": "#0c8e15"
    },
    {
      "id": 31,
      "outputModuleId": 4,
      "outputId": 0,
      "inputModuleId": 2,
      "inputId": 1,
      "color": "#0986ad"
    },
    {
      "id": 32,
      "outputModuleId": 2,
      "outputId": 1,
      "inputModuleId": 7,
      "inputId": 0,
      "color": "#c9b70e"
    },
    {
      "id": 34,
      "outputModuleId": 11,
      "outputId": 1,
      "inputModuleId": 3,
      "inputId": 0,
      "color": "#c91847"
    },
    {
      "id": 35,
      "outputModuleId": 11,
      "outputId": 0,
      "inputModuleId": 6,
      "inputId": 4,
      "color": "#0986ad"
    },
    {
      "id": 36,
      "outputModuleId": 2,
      "outputId": 0,
      "inputModuleId": 10,
      "inputId": 2,
      "color": "#c9b70e"
    },
    {
      "id": 37,
      "outputModuleId": 2,
      "outputId": 0,
      "inputModuleId": 10,
      "inputId": 3,
      "color": "#0c8e15"
    }
  ]
}